<?xml version="1.0" encoding="UTF-8" standalone="no"?>
<!DOCTYPE svg PUBLIC "-//W3C//DTD SVG 1.1//EN" "http://www.w3.org/Graphics/SVG/1.1/DTD/svg11.dtd">
<!-- Generated by Microsoft Visio, SVG Export wizard-configuration.svg Page-1 -->
<svg xmlns="http://www.w3.org/2000/svg" xmlns:xlink="http://www.w3.org/1999/xlink" xmlns:ev="http://www.w3.org/2001/xml-events"
		xmlns:v="http://schemas.microsoft.com/visio/2003/SVGExtensions/" width="7.48031in" height="2.16535in"
		viewBox="0 0 538.583 155.906" xml:space="preserve" color-interpolation-filters="sRGB" class="st21">
	<v:documentProperties v:langID="2057" v:metric="true" v:viewMarkup="false">
		<v:userDefs>
			<v:ud v:nameU="msvNoAutoConnect" v:val="VT0(1):26"/>
		</v:userDefs>
	</v:documentProperties>

	<style type="text/css">
	<![CDATA[
		.st1 {fill:#ebf1df;stroke:#000000;stroke-linecap:round;stroke-linejoin:round;stroke-width:0.24}
		.st2 {fill:#000000;font-family:Calibri;font-size:0.499992em}
		.st3 {font-size:1em}
		.st4 {marker-end:url(#mrkr13-13);stroke:#000000;stroke-linecap:round;stroke-linejoin:round;stroke-width:0.75}
		.st5 {fill:#000000;fill-opacity:1;stroke:#000000;stroke-opacity:1;stroke-width:0.22935779816514}
		.st6 {fill:#d5e8d4}
		.st7 {stroke:#82b366;stroke-linecap:round;stroke-linejoin:round;stroke-width:0.75}
		.st8 {fill:#f8cecc}
		.st9 {stroke:#b85450;stroke-linecap:round;stroke-linejoin:round;stroke-width:0.75}
		.st10 {fill:#dae8fc}
		.st11 {stroke:#6c8ebf;stroke-linecap:round;stroke-linejoin:round;stroke-width:0.75}
		.st12 {fill:none;stroke:#ffb570;stroke-linecap:round;stroke-linejoin:round;stroke-width:1.41732}
		.st13 {fill:none;stroke:#000000;stroke-linecap:round;stroke-linejoin:round;stroke-width:0.75}
		.st14 {fill:#fad7ac}
		.st15 {stroke:#b46504;stroke-linecap:round;stroke-linejoin:round;stroke-width:0.75}
		.st16 {fill:#ffffff;stroke:#000000;stroke-linecap:round;stroke-linejoin:round;stroke-width:0.75}
		.st17 {fill:#000000;font-family:Calibri;font-size:0.666664em}
		.st18 {fill:#dbeef3;stroke:#000000;stroke-linecap:round;stroke-linejoin:round;stroke-width:0.24}
		.st19 {marker-end:url(#mrkr13-95);stroke:#ff0000;stroke-linecap:round;stroke-linejoin:round;stroke-width:0.75}
		.st20 {fill:#ff0000;fill-opacity:1;stroke:#ff0000;stroke-opacity:1;stroke-width:0.22935779816514}
		.st21 {fill:none;fill-rule:evenodd;font-size:12px;overflow:visible;stroke-linecap:square;stroke-miterlimit:3}
	]]>
	</style>

	<defs id="Markers">
		<g id="lend13">
			<path d="M 3 1 L 0 0 L 3 -1 L 3 1 " style="stroke:none"/>
		</g>
		<marker id="mrkr13-13" class="st5" v:arrowType="13" v:arrowSize="2" v:setback="13.08" refX="-13.08" orient="auto"
				markerUnits="strokeWidth" overflow="visible">
			<use xlink:href="#lend13" transform="scale(-4.36,-4.36) "/>
		</marker>
		<marker id="mrkr13-95" class="st20" v:arrowType="13" v:arrowSize="2" v:setback="13.08" refX="-13.08" orient="auto"
				markerUnits="strokeWidth" overflow="visible">
			<use xlink:href="#lend13" transform="scale(-4.36,-4.36) "/>
		</marker>
	</defs>
	<g v:mID="0" v:index="1" v:groupContext="foregroundPage">
		<title>Page-1</title>
		<v:pageProperties v:drawingScale="0.0393701" v:pageScale="0.0393701" v:drawingUnits="24" v:shadowOffsetX="0"
				v:shadowOffsetY="0"/>
		<v:layer v:name="Flowchart" v:index="0"/>
		<v:layer v:name="Background" v:index="1"/>
		<v:layer v:name="Connector" v:index="2"/>
		<g id="group275-1" transform="translate(17.7165,-69.0013)" v:mID="275" v:groupContext="group">
			<v:userDefs>
				<v:ud v:nameU="visVersion" v:prompt="" v:val="VT0(15):26"/>
			</v:userDefs>
			<title>Can.275</title>
			<desc>Platform XPFM</desc>
			<g id="shape276-2" v:mID="276" v:groupContext="shape">
				<title>Sheet.276</title>
				<v:userDefs>
					<v:ud v:nameU="ControlHalfHeight" v:prompt="" v:val="VT0(0.11811023622047):24"/>
					<v:ud v:nameU="FillForegnd" v:prompt="" v:val="VT0(1):26"/>
					<v:ud v:nameU="ControlHalfHeight" v:prompt="" v:val="VT0(0.044550357972348):1"/>
					<v:ud v:nameU="FillForegnd" v:prompt="" v:val="VT5(#ebf1df)"/>
				</v:userDefs>
				<path d="M0 152.7 A24.8031 3.20763 -180 1 0 49.61 152.7 L49.61 127.04 L0 127.04 L0 152.7 Z" class="st1"/>
			</g>
			<g id="shape275-4" v:mID="275" v:groupContext="groupContent">
				<v:textBlock v:margins="rect(4,4,4,4)" v:tabSpace="42.5197"/>
				<v:textRect cx="24.8031" cy="139.867" width="49.61" height="32.0763"/>
				<ellipse cx="24.8031" cy="127.037" rx="24.8031" ry="3.20763" class="st1"/>
				<text x="14.18" y="138.07" class="st2" v:langID="1033"><v:paragraph v:horizAlign="1"/><v:tabList/>Platform<v:newlineChar/><tspan
							x="17.75" dy="1.2em" class="st3">XPFM</tspan></text>			</g>
		</g>
		<g id="shape564-8" v:mID="564" v:groupContext="shape" v:layerMember="2" transform="translate(67.3228,-92.126)">
			<title>Dynamic connector.564</title>
			<path d="M0 162.99 L36.24 162.99" class="st4"/>
		</g>
		<g id="shape644-14" v:mID="644" v:groupContext="shape" v:layerMember="1" transform="translate(2498.03,-142.087)">
			<title>Shape79</title>
			<desc>Input product</desc>
			<v:textBlock v:margins="rect(0,0,0,0)" v:tabSpace="42.5197"/>
			<v:textRect cx="24.8031" cy="131.102" width="46.78" height="46.7717"/>
			<path d="M0 99.21 C0 80.31 49.61 80.31 49.61 99.21 L49.61 141.73 C49.61 160.63 0 160.63 0 141.73 L0 99.21 Z"
					class="st6"/>
			<path d="M0 99.21 C0 80.31 49.61 80.31 49.61 99.21 L49.61 141.73 C49.61 160.63 0 160.63 0 141.73 L0 99.21" class="st7"/>
			<path d="M0 99.21 C0 113.39 49.61 113.39 49.61 99.21" class="st7"/>
			<text x="8.01" y="132.9" class="st2" v:langID="2057"><v:paragraph v:horizAlign="1"/><v:tabList/>Input product</text>		</g>
		<g id="shape645-19" v:mID="645" v:groupContext="shape" v:layerMember="1" transform="translate(2640.47,-140.577)">
			<title>Shape80</title>
			<desc>Output product</desc>
			<v:textBlock v:margins="rect(0,0,0,0)" v:tabSpace="42.5197"/>
			<v:textRect cx="26.5748" cy="131.102" width="50.32" height="46.7717"/>
			<path d="M0 99.21 C0 80.31 53.15 80.31 53.15 99.21 L53.15 141.73 C53.15 160.63 0 160.63 0 141.73 L0 99.21 Z"
					class="st8"/>
			<path d="M0 99.21 C0 80.31 53.15 80.31 53.15 99.21 L53.15 141.73 C53.15 160.63 0 160.63 0 141.73 L0 99.21" class="st9"/>
			<path d="M0 99.21 C0 113.39 53.15 113.39 53.15 99.21" class="st9"/>
			<text x="7.54" y="132.9" class="st2" v:langID="2057"><v:paragraph v:horizAlign="1"/><v:tabList/>Output product</text>		</g>
		<g id="shape646-24" v:mID="646" v:groupContext="shape" v:layerMember="1" transform="translate(2565.35,-140.577)">
			<title>Shape81</title>
			<desc>Intermediate file</desc>
			<v:textBlock v:margins="rect(0,0,0,0)" v:tabSpace="42.5197"/>
			<v:textRect cx="28.3465" cy="129.951" width="53.86" height="49.0748"/>
			<path d="M0 96.91 C0 77.07 56.69 77.07 56.69 96.91 L56.69 141.02 C56.69 160.87 0 160.87 0 141.02 L0 96.91 Z"
					class="st10"/>
			<path d="M0 96.91 C0 77.07 56.69 77.07 56.69 96.91 L56.69 141.02 C56.69 160.87 0 160.87 0 141.02 L0 96.91" class="st11"/>
			<path d="M0 96.91 C0 111.79 56.69 111.79 56.69 96.91" class="st11"/>
			<text x="7.92" y="131.75" class="st2" v:langID="2057"><v:paragraph v:horizAlign="1"/><v:tabList/>Intermediate file</text>		</g>
		<g id="shape647-29" v:mID="647" v:groupContext="shape" v:layerMember="1" transform="translate(2611.42,-57.0472)">
			<title>Shape82</title>
			<desc>Vitis task</desc>
			<v:textBlock v:margins="rect(0,0,0,0)" v:tabSpace="42.5197"/>
			<v:textRect cx="24.8031" cy="124.016" width="46.78" height="60.9449"/>
			<rect x="0" y="92.126" width="49.6063" height="63.7795" class="st12"/>
			<text x="13.89" y="125.82" class="st2" v:langID="2057"><v:paragraph v:horizAlign="1"/><v:tabList/>Vitis task</text>		</g>
		<g id="shape648-32" v:mID="648" v:groupContext="shape" v:layerMember="1" transform="translate(2533.46,-57.0472)">
			<title>Shape83</title>
			<desc>Wizard task</desc>
			<v:textBlock v:margins="rect(0,0,0,0)" v:tabSpace="42.5197"/>
			<v:textRect cx="26.3976" cy="124.016" width="49.97" height="60.9449"/>
			<rect x="0" y="92.126" width="52.7953" height="63.7795" class="st13"/>
			<text x="12.14" y="125.82" class="st2" v:langID="2057"><v:paragraph v:horizAlign="1"/><v:tabList/>Wizard task</text>		</g>
		<g id="shape649-35" v:mID="649" v:groupContext="shape" v:layerMember="1" transform="translate(2682.28,-57.0472)">
			<title>Shape84</title>
			<desc>Vitis commands</desc>
			<v:textBlock v:margins="rect(0,0,0,0)" v:tabSpace="42.5197"/>
			<v:textRect cx="26.2205" cy="131.102" width="49.61" height="46.7717"/>
			<path d="M0 99.21 C0 80.31 52.44 80.31 52.44 99.21 L52.44 141.73 C52.44 160.63 0 160.63 0 141.73 L0 99.21 Z"
					class="st14"/>
			<path d="M0 99.21 C0 80.31 52.44 80.31 52.44 99.21 L52.44 141.73 C52.44 160.63 0 160.63 0 141.73 L0 99.21" class="st15"/>
			<path d="M0 99.21 C0 113.39 52.44 113.39 52.44 99.21" class="st15"/>
			<text x="6.88" y="132.9" class="st2" v:langID="2057"><v:paragraph v:horizAlign="1"/><v:tabList/>Vitis commands</text>		</g>
		<g id="shape650-40" v:mID="650" v:groupContext="shape" v:layerMember="1" transform="translate(2483.86,-28.7008)">
			<title>Shape85</title>
			<desc>Legend</desc>
			<v:textBlock v:margins="rect(0,0,0,0)" v:tabSpace="42.5197"/>
			<v:textRect cx="138.189" cy="-39.685" width="273.55" height="202.677"/>
			<rect x="0" y="-49.6063" width="276.378" height="205.512" class="st13"/>
			<text x="129.38" y="-37.88" class="st2" v:langID="2057"><v:paragraph v:horizAlign="1"/><v:tabList/>Legend</text>		</g>
		<g id="group656-43" transform="translate(17.7165,-23.3392)" v:mID="656" v:groupContext="group">
			<v:userDefs>
				<v:ud v:nameU="visVersion" v:prompt="" v:val="VT0(15):26"/>
			</v:userDefs>
			<title>Can.656</title>
			<desc>Wizard config JSON</desc>
			<g id="shape657-44" v:mID="657" v:groupContext="shape">
				<title>Sheet.657</title>
				<v:userDefs>
					<v:ud v:nameU="ControlHalfHeight" v:prompt="" v:val="VT0(0.11811023622047):24"/>
					<v:ud v:nameU="FillForegnd" v:prompt="" v:val="VT0(1):26"/>
					<v:ud v:nameU="ControlHalfHeight" v:prompt="" v:val="VT0(0.044550357972348):1"/>
					<v:ud v:nameU="FillForegnd" v:prompt="" v:val="VT5(#ebf1df)"/>
				</v:userDefs>
				<path d="M0 152.7 A24.8031 3.20763 -180 1 0 49.61 152.7 L49.61 127.04 L0 127.04 L0 152.7 Z" class="st1"/>
			</g>
			<g id="shape656-46" v:mID="656" v:groupContext="groupContent">
				<v:textBlock v:margins="rect(4,4,4,4)" v:tabSpace="42.5197"/>
				<v:textRect cx="24.8031" cy="139.867" width="49.61" height="32.0763"/>
				<ellipse cx="24.8031" cy="127.037" rx="24.8031" ry="3.20763" class="st1"/>
				<text x="8.08" y="138.07" class="st2" v:langID="2057"><v:paragraph v:horizAlign="1"/><v:tabList/>Wizard config <tspan
							x="18.55" dy="1.2em" class="st3">JSON</tspan></text>			</g>
		</g>
		<g id="group668-50" transform="translate(113.386,-67.7238)" v:mID="668" v:groupContext="group" v:layerMember="0">
			<v:userDefs>
				<v:ud v:nameU="visVersion" v:prompt="" v:val="VT0(15):26"/>
				<v:ud v:nameU="ConnGap" v:prompt="" v:val="VT0(0.00012908222537757):24"/>
			</v:userDefs>
			<title>Process.668</title>
			<desc>Load platform</desc>
			<g id="shape669-51" v:mID="669" v:groupContext="shape" v:layerMember="0">
				<title>Sheet.669</title>
				<path d="M54.21 121.27 L8.76 121.27 C3.93 121.27 0 125.06 0 129.72 L0 147.46 C0 152.12 3.93 155.91 8.76 155.91 L54.21
							 155.91 C59.04 155.91 62.97 152.12 62.97 147.46 L62.97 129.72 C62.97 125.06 59.04 121.27 54.21 121.27
							 Z" class="st16"/>
			</g>
			<g id="shape668-53" v:mID="668" v:groupContext="groupContent" v:layerMember="0">
				<v:textBlock v:margins="rect(4,4,4,4)" v:tabSpace="42.5197"/>
				<v:textRect cx="31.4829" cy="138.59" width="38.21" height="27.2035"/>
				<text x="23.67" y="136.19" class="st17" v:langID="1033"><v:paragraph v:horizAlign="1"/><v:tabList/>Load<v:newlineChar/><tspan
							x="17.29" dy="1.2em" class="st3">platform</tspan></text>			</g>
		</g>
		<g id="group671-56" transform="translate(214.77,-113.386)" v:mID="671" v:groupContext="group">
			<v:userDefs>
				<v:ud v:nameU="visVersion" v:prompt="" v:val="VT0(15):26"/>
			</v:userDefs>
			<title>Can.671</title>
			<desc>Platform metadata</desc>
			<g id="shape672-57" v:mID="672" v:groupContext="shape">
				<title>Sheet.672</title>
				<v:userDefs>
					<v:ud v:nameU="ControlHalfHeight" v:prompt="" v:val="VT0(0.11811023622047):24"/>
					<v:ud v:nameU="FillForegnd" v:prompt="" v:val="VT0(1):26"/>
					<v:ud v:nameU="ControlHalfHeight" v:prompt="" v:val="VT0(0.044550357972348):1"/>
					<v:ud v:nameU="FillForegnd" v:prompt="" v:val="VT5(#dbeef3)"/>
				</v:userDefs>
				<path d="M0 152.7 A24.8031 3.20763 -180 1 0 49.61 152.7 L49.61 127.04 L0 127.04 L0 152.7 Z" class="st18"/>
			</g>
			<g id="shape671-59" v:mID="671" v:groupContext="groupContent">
				<v:textBlock v:margins="rect(4,4,4,4)" v:tabSpace="42.5197"/>
				<v:textRect cx="24.8031" cy="139.867" width="49.61" height="32.0763"/>
				<ellipse cx="24.8031" cy="127.037" rx="24.8031" ry="3.20763" class="st18"/>
				<text x="14.18" y="138.07" class="st2" v:langID="2057"><v:paragraph v:horizAlign="1"/><v:tabList/>Platform <tspan
							x="13.02" dy="1.2em" class="st3">metadata</tspan></text>			</g>
		</g>
		<g id="group674-63" transform="translate(303.005,-113.386)" v:mID="674" v:groupContext="group" v:layerMember="0">
			<v:userDefs>
				<v:ud v:nameU="visVersion" v:prompt="" v:val="VT0(15):26"/>
				<v:ud v:nameU="ConnGap" v:prompt="" v:val="VT0(0.00012908222537757):24"/>
			</v:userDefs>
			<title>Process.674</title>
			<desc>Auto configure</desc>
			<g id="shape675-64" v:mID="675" v:groupContext="shape" v:layerMember="0">
				<title>Sheet.675</title>
				<path d="M39.05 123.83 L6.31 123.83 C2.83 123.83 0 127.34 0 131.65 L0 148.08 C0 152.4 2.83 155.91 6.31 155.91 L39.05
							 155.91 C42.52 155.91 45.35 152.4 45.35 148.08 L45.35 131.65 C45.35 127.34 42.52 123.83 39.05 123.83
							 Z" class="st16"/>
			</g>
			<g id="shape674-66" v:mID="674" v:groupContext="groupContent" v:layerMember="0">
				<v:textBlock v:margins="rect(4,4,4,4)" v:tabSpace="42.5197"/>
				<v:textRect cx="22.6772" cy="139.867" width="40.64" height="27.2035"/>
				<text x="14.81" y="137.47" class="st17" v:langID="2057"><v:paragraph v:horizAlign="1"/><v:tabList/>Auto <v:newlineChar/><tspan
							x="7.27" dy="1.2em" class="st3">configure</tspan></text>			</g>
		</g>
		<g id="group704-69" transform="translate(479.764,-70.2787)" v:mID="704" v:groupContext="group">
			<v:userDefs>
				<v:ud v:nameU="visVersion" v:prompt="" v:val="VT0(15):26"/>
			</v:userDefs>
			<title>Can.704</title>
			<desc>Actual wizard configuration</desc>
			<g id="shape705-70" v:mID="705" v:groupContext="shape">
				<title>Sheet.705</title>
				<v:userDefs>
					<v:ud v:nameU="ControlHalfHeight" v:prompt="" v:val="VT0(0.11811023622047):24"/>
					<v:ud v:nameU="FillForegnd" v:prompt="" v:val="VT0(1):26"/>
					<v:ud v:nameU="ControlHalfHeight" v:prompt="" v:val="VT0(0.044550357972348):1"/>
					<v:ud v:nameU="FillForegnd" v:prompt="" v:val="VT5(#dbeef3)"/>
				</v:userDefs>
				<path d="M0 152.7 A24.8031 3.20763 -180 1 0 49.61 152.7 L49.61 127.04 L0 127.04 L0 152.7 Z" class="st18"/>
			</g>
			<g id="shape704-72" v:mID="704" v:groupContext="groupContent">
				<v:textBlock v:margins="rect(4,4,4,4)" v:tabSpace="42.5197"/>
				<v:textRect cx="24.8031" cy="139.867" width="49.61" height="32.0763"/>
				<ellipse cx="24.8031" cy="127.037" rx="24.8031" ry="3.20763" class="st18"/>
				<text x="8.34" y="138.07" class="st2" v:langID="2057"><v:paragraph v:horizAlign="1"/><v:tabList/>Actual wizard <tspan
							x="8.45" dy="1.2em" class="st3">configuration</tspan></text>			</g>
		</g>
		<g id="group707-76" transform="translate(355.039,-70.2787)" v:mID="707" v:groupContext="group">
			<v:userDefs>
				<v:ud v:nameU="visVersion" v:prompt="" v:val="VT0(15):26"/>
			</v:userDefs>
			<title>Can.707</title>
			<desc>Auto wizard configuration</desc>
			<g id="shape708-77" v:mID="708" v:groupContext="shape">
				<title>Sheet.708</title>
				<v:userDefs>
					<v:ud v:nameU="ControlHalfHeight" v:prompt="" v:val="VT0(0.11811023622047):24"/>
					<v:ud v:nameU="FillForegnd" v:prompt="" v:val="VT0(1):26"/>
					<v:ud v:nameU="ControlHalfHeight" v:prompt="" v:val="VT0(0.044550357972348):1"/>
					<v:ud v:nameU="FillForegnd" v:prompt="" v:val="VT5(#dbeef3)"/>
				</v:userDefs>
				<path d="M0 152.7 A24.8031 3.20763 -180 1 0 49.61 152.7 L49.61 127.04 L0 127.04 L0 152.7 Z" class="st18"/>
			</g>
			<g id="shape707-79" v:mID="707" v:groupContext="groupContent">
				<v:textBlock v:margins="rect(4,4,4,4)" v:tabSpace="42.5197"/>
				<v:textRect cx="24.8031" cy="139.867" width="49.61" height="32.0763"/>
				<ellipse cx="24.8031" cy="127.037" rx="24.8031" ry="3.20763" class="st18"/>
				<text x="18.9" y="134.47" class="st2" v:langID="1033"><v:paragraph v:horizAlign="1"/><v:tabList/>Auto <v:newlineChar/><v:paragraph
							v:horizAlign="1"/><tspan x="16.73" dy="1.2em" class="st3">wizard </tspan><tspan x="8.45" dy="1.2em"
							class="st3">configuration</tspan></text>			</g>
		</g>
		<g id="group710-84" transform="translate(423.071,-22.0618)" v:mID="710" v:groupContext="group" v:layerMember="0">
			<v:userDefs>
				<v:ud v:nameU="visVersion" v:prompt="" v:val="VT0(15):26"/>
				<v:ud v:nameU="ConnGap" v:prompt="" v:val="VT0(0.00012908222537757):24"/>
			</v:userDefs>
			<title>Process.710</title>
			<desc>Merge configuration</desc>
			<g id="shape711-85" v:mID="711" v:groupContext="shape" v:layerMember="0">
				<title>Sheet.711</title>
				<path d="M42.71 121.27 L6.9 121.27 C3.1 121.27 0 125.06 0 129.72 L0 147.46 C0 152.12 3.1 155.91 6.9 155.91 L42.71
							 155.91 C46.51 155.91 49.61 152.12 49.61 147.46 L49.61 129.72 C49.61 125.06 46.51 121.27 42.71 121.27
							 Z" class="st16"/>
			</g>
			<g id="shape710-87" v:mID="710" v:groupContext="groupContent" v:layerMember="0">
				<v:textBlock v:margins="rect(4,4,4,4)" v:tabSpace="42.5197"/>
				<v:textRect cx="24.8031" cy="138.59" width="53.43" height="27.2035"/>
				<text x="14.13" y="136.19" class="st17" v:langID="2057"><v:paragraph v:horizAlign="1"/><v:tabList/>Merge <v:newlineChar/><tspan
							x="3" dy="1.2em" class="st3">configuration</tspan></text>			</g>
		</g>
		<g id="shape718-90" v:mID="718" v:groupContext="shape" v:layerMember="2" transform="translate(176.361,-85.0394)">
			<title>Dynamic connector.718</title>
			<path d="M0 155.91 L17.65 155.91 L17.65 111.52 L28.6 111.52" class="st19"/>
		</g>
		<g id="shape719-96" v:mID="719" v:groupContext="shape" v:layerMember="2" transform="translate(264.377,-122.337)">
			<title>Dynamic connector.719</title>
			<path d="M0 148.82 L28.81 148.82" class="st4"/>
		</g>
		<g id="shape720-101" v:mID="720" v:groupContext="shape" v:layerMember="2" transform="translate(325.682,-113.377)">
			<title>Dynamic connector.720</title>
			<path d="M0 155.91 L0 182.97 L19.55 182.97" class="st19"/>
		</g>
		<g id="shape724-106" v:mID="724" v:groupContext="shape" v:layerMember="2" transform="translate(67.3228,-32.2907)">
			<title>Dynamic connector.724</title>
			<path d="M0 148.82 L345.93 148.82" class="st4"/>
		</g>
		<g id="shape725-111" v:mID="725" v:groupContext="shape" v:layerMember="2" transform="translate(379.843,-70.2787)">
			<title>Dynamic connector.725</title>
			<path d="M0 155.91 L0 186.81 L33.41 186.81" class="st4"/>
		</g>
		<g id="shape726-116" v:mID="726" v:groupContext="shape" v:layerMember="2" transform="translate(447.874,-56.7022)">
			<title>Dynamic connector.726</title>
			<path d="M0 155.91 L0 126.29 L22.08 126.29" class="st19"/>
		</g>
	</g>
</svg>
